<?xml version="1.0" standalone="no"?>
<!DOCTYPE svg PUBLIC "-//W3C//DTD SVG 20010904//EN"
 "http://www.w3.org/TR/2001/REC-SVG-20010904/DTD/svg10.dtd">
<svg version="1.0" xmlns="http://www.w3.org/2000/svg"
 width="1024.000000pt" height="1024.000000pt" viewBox="0 0 1024.000000 1024.000000"
 preserveAspectRatio="xMidYMid meet">

<g transform="translate(0.000000,1024.000000) scale(0.100000,-0.100000)"
fill="#000000" stroke="none">
<path d="M0 5120 l0 -5120 5120 0 5120 0 0 5120 0 5120 -5120 0 -5120 0 0
-5120z m5215 3823 c39 -9 106 -30 150 -46 162 -62 899 -455 1078 -575 l67 -45
48 51 c78 85 249 228 283 238 30 9 33 13 33 53 1 30 6 47 18 55 21 13 34 2 44
-37 6 -26 -1 -36 -79 -110 -47 -45 -133 -122 -190 -172 -58 -49 -106 -93 -106
-96 -1 -3 29 -21 67 -39 83 -42 153 -82 306 -177 65 -41 122 -75 126 -76 5 -1
26 22 48 51 70 93 270 267 287 250 3 -2 -66 -75 -153 -161 l-158 -156 71 -65
c207 -187 348 -474 395 -803 11 -78 17 -789 7 -800 -4 -3 -7 23 -8 58 0 35 -4
217 -9 404 -9 375 -14 408 -85 620 -46 139 -96 232 -195 365 -111 148 -133
165 -545 405 -129 75 -377 215 -470 265 -44 24 -98 55 -120 70 -46 31 -244
138 -497 269 -208 108 -330 155 -453 177 -115 21 -197 13 -362 -32 -141 -38
-306 -116 -613 -289 -91 -51 -239 -132 -330 -180 -145 -78 -519 -295 -727
-422 -207 -127 -341 -280 -447 -509 -51 -112 -99 -286 -115 -419 -6 -51 -11
-261 -11 -485 l0 -395 -182 2 c-159 2 -239 10 -298 29 -12 4 -11 8 5 17 14 8
90 12 240 13 l220 1 1 39 c0 21 -1 45 -4 52 -3 9 -57 12 -221 12 l-216 1 -290
-295 c-159 -162 -302 -302 -317 -311 -25 -16 -28 -16 -52 2 -14 10 -26 20 -26
23 0 3 21 16 48 30 32 17 146 124 354 333 301 302 308 308 330 293 18 -13 56
-16 211 -16 168 0 188 2 183 16 -3 9 -6 31 -6 50 l0 34 -191 0 -190 0 3 23 c3
20 10 23 88 29 47 3 131 6 188 7 l102 1 0 59 0 59 -204 -2 -204 -2 -119 -115
c-103 -100 -199 -179 -217 -179 -3 0 -6 7 -6 15 0 12 -30 15 -173 17 l-174 3
28 -35 c15 -19 35 -52 44 -72 l15 -38 120 0 c68 0 121 -4 125 -10 3 -5 15 -10
26 -10 12 0 19 -5 17 -12 -4 -10 -42 -13 -146 -13 l-141 0 -6 -33 c-8 -43 -67
-108 -112 -123 -41 -13 -104 -5 -139 18 -33 21 -70 88 -79 139 -8 53 8 114 41
154 50 59 64 62 333 67 215 5 250 8 276 24 17 10 86 74 155 142 l125 125 190
6 c105 3 198 6 208 6 14 0 17 10 17 59 l0 58 -122 7 c-68 4 -215 16 -328 26
-113 11 -240 20 -282 20 -57 0 -81 4 -93 16 -29 30 -2 39 113 38 59 -1 175 -9
257 -18 83 -9 216 -20 297 -24 165 -8 158 -11 158 69 0 79 43 287 81 393 66
183 133 292 283 456 l86 94 -170 169 c-94 93 -170 173 -170 178 0 24 95 -48
233 -177 l151 -140 170 99 c94 54 196 116 226 136 31 21 114 69 185 106 72 38
148 81 170 95 22 15 101 58 175 95 74 37 249 128 388 202 298 158 340 177 446
204 183 48 275 53 411 22z m1375 -150 c0 -32 3 -102 7 -156 l6 -98 -92 -90
c-51 -50 -98 -88 -104 -86 -7 2 -13 13 -15 24 -2 14 12 34 48 64 29 24 69 61
91 82 43 42 45 49 30 189 -9 89 -5 128 15 128 10 0 14 -15 14 -57z m-3120
-104 c2 -178 1 -209 -8 -209 -14 0 -33 68 -26 97 3 15 8 78 10 138 2 61 3 112
4 115 0 3 5 -2 10 -11 5 -8 9 -67 10 -130z m170 -3 c0 -94 -4 -147 -11 -152
-8 -4 -8 -9 0 -17 14 -14 14 -164 0 -172 -17 -11 -21 1 -27 75 -3 46 -1 75 7
84 8 9 8 16 2 20 -10 7 -15 281 -5 297 3 5 12 9 20 9 11 0 14 -25 14 -144z
m2780 89 c0 -61 -12 -71 -29 -24 -17 51 -14 79 9 79 18 0 20 -7 20 -55z m335
3 c5 -44 4 -95 -4 -200 -1 -5 -7 -8 -15 -8 -9 0 -15 18 -19 58 -6 64 -1 178 8
192 14 22 24 7 30 -42z m-1491 0 c86 -23 428 -191 696 -343 80 -45 181 -101
225 -125 44 -24 154 -86 245 -140 91 -53 230 -134 310 -180 263 -151 324 -197
422 -317 112 -137 175 -275 234 -508 25 -95 27 -122 36 -495 11 -469 5 -1183
-12 -1289 -55 -354 -207 -604 -487 -804 -45 -32 -137 -88 -205 -125 -162 -89
-388 -215 -568 -317 -280 -159 -748 -394 -854 -429 -149 -50 -363 -44 -516 16
-140 54 -695 340 -1195 616 -381 210 -439 244 -521 305 -173 130 -317 390
-381 688 -17 77 -18 151 -18 899 l0 815 23 104 c30 134 62 222 124 344 111
216 219 320 503 482 66 38 149 88 185 110 36 23 153 90 260 150 107 59 233
129 280 155 149 84 562 302 639 337 83 37 160 62 236 74 80 13 250 1 339 -23z
m-1926 -101 c2 -63 -2 -115 -8 -127 -9 -17 -4 -28 31 -69 25 -31 46 -48 55
-44 16 6 136 -115 131 -132 -2 -5 -16 -11 -31 -13 -16 -2 -26 1 -22 6 3 5 -19
29 -49 53 -31 24 -53 49 -51 56 3 7 -1 10 -8 7 -13 -5 -88 52 -118 89 -16 21
-16 23 2 42 15 16 19 41 23 122 5 106 11 127 30 120 8 -2 13 -41 15 -110z
m-165 -40 c12 -37 3 -57 -27 -57 -31 0 -44 36 -26 70 15 28 41 22 53 -13z
m3245 3 c6 -36 -8 -90 -22 -90 -26 0 -35 64 -15 101 13 25 33 20 37 -11z
m-2640 -35 c4 -47 -6 -125 -16 -125 -19 0 -37 59 -34 113 3 54 5 58 25 55 18
-2 23 -11 25 -43z m-604 -216 c30 -36 31 -44 11 -92 -23 -57 -72 -73 -120 -41
-57 37 -14 164 55 164 19 0 36 -10 54 -31z m3810 0 c37 -43 36 -96 -3 -133
-37 -36 -68 -31 -98 13 -37 55 -29 96 27 134 34 24 44 22 74 -14z m-3711 -81
c50 -29 108 -110 86 -124 -13 -8 -84 59 -105 98 -22 42 -19 46 19 26z m-620
-259 c28 -44 -41 -109 -78 -73 -20 20 -19 58 1 79 20 19 63 16 77 -6z m4870 0
c15 -24 0 -66 -29 -86 -26 -16 -27 -16 -45 6 -24 29 -24 59 -2 83 20 22 61 20
76 -3z m-5092 -278 c41 -41 39 -83 -5 -127 -45 -45 -84 -46 -120 -3 -36 42
-35 88 3 128 39 41 82 42 122 2z m5358 -7 c38 -48 18 -120 -39 -144 -38 -16
-72 -2 -89 37 -30 66 4 133 69 133 30 0 43 -6 59 -26z m-5719 -420 c0 -28 -5
-36 -27 -45 -29 -11 -38 -3 -50 40 -4 18 0 29 16 43 33 26 61 9 61 -38z m320
11 c13 -24 12 -28 -12 -52 -26 -25 -26 -25 -52 -7 -30 22 -32 40 -9 66 23 26
57 23 73 -7z m5450 5 c14 -26 5 -57 -21 -71 -25 -13 -56 -3 -70 23 -9 16 -6
24 12 44 28 29 64 31 79 4z m268 8 c25 -25 8 -78 -25 -78 -7 0 -20 11 -28 24
-29 43 18 89 53 54z m-6488 -200 c57 -30 80 -74 80 -154 0 -71 -19 -103 -81
-134 -49 -25 -89 -25 -138 0 -73 37 -107 126 -77 204 37 96 125 130 216 84z
m768 10 c26 -26 2 -98 -34 -98 -13 0 -54 46 -54 61 0 16 40 49 58 49 10 0 23
-5 30 -12z m5424 -5 c22 -20 23 -41 1 -65 -20 -22 -51 -23 -75 -1 -22 20 -23
41 -1 65 20 22 51 23 75 1z m805 -3 c82 -50 101 -159 42 -245 -28 -40 -57 -55
-105 -55 -64 0 -154 52 -154 89 0 12 -3 11 -13 -3 -12 -16 -37 -20 -178 -27
-90 -4 -188 -13 -217 -18 -96 -19 -263 -25 -312 -11 -44 13 -45 13 -17 21 39
11 593 57 695 59 32 0 32 1 32 48 1 124 127 203 227 142z m-518 -522 c64 -62
118 -115 121 -118 3 -3 21 -19 41 -36 l36 -31 194 -7 c304 -11 334 -17 380
-79 35 -47 40 -160 9 -215 -55 -97 -197 -111 -258 -24 -11 15 -24 43 -29 62
l-9 35 -118 3 c-84 2 -116 6 -114 14 7 19 58 28 147 27 l85 -2 13 45 c7 25 26
60 41 76 l29 31 -126 -5 c-69 -2 -153 -6 -186 -8 -32 -3 -68 0 -80 6 -32 18
-241 205 -264 237 l-21 29 -169 4 c-93 1 -173 6 -177 11 -4 4 0 15 9 24 16 17
63 22 291 31 36 2 45 -4 155 -110z m-152 -105 c6 -18 -41 -27 -145 -27 -95 0
-134 14 -102 34 22 15 242 8 247 -7z m298 -366 c138 -139 287 -287 332 -329
80 -74 82 -76 63 -93 -19 -17 -23 -14 -122 81 -57 54 -195 192 -308 306 l-205
209 -135 0 c-139 1 -181 7 -187 26 -6 17 24 24 155 33 68 5 127 11 130 14 3 3
10 6 16 6 6 0 124 -114 261 -253z m-683 -270 c-1 -365 -10 -523 -38 -662 -17
-81 -60 -212 -76 -230 -6 -6 -7 -4 -4 5 86 258 93 321 102 837 4 227 9 411 12
408 3 -2 4 -164 4 -358z m428 323 c12 -7 12 -12 2 -22 -15 -15 -243 -25 -290
-13 -25 6 -26 7 -7 18 39 21 267 35 295 17z m312 -434 l266 -269 79 7 c43 3
108 9 144 12 56 5 67 3 73 -11 3 -9 4 -21 1 -25 -3 -5 -66 -7 -139 -4 -86 3
-137 1 -141 -6 -3 -5 -13 -10 -20 -10 -8 0 -126 110 -263 244 -136 135 -260
254 -275 266 -24 19 -41 21 -176 23 -107 1 -154 6 -163 15 -21 21 5 29 121 37
58 4 124 10 146 14 30 6 45 3 60 -8 11 -9 140 -137 287 -285z m-5904 284 l172
0 0 -36 c0 -28 -3 -35 -15 -31 -8 4 -109 7 -224 8 -196 1 -212 0 -238 -19 -26
-19 -95 -88 -387 -390 -97 -101 -123 -122 -140 -118 -12 4 -88 7 -171 9 l-150
2 0 24 0 25 156 -3 155 -3 40 34 c21 18 116 110 209 203 94 94 203 201 243
239 l73 69 52 -7 c29 -3 130 -6 225 -6z m175 -452 c5 -287 16 -373 66 -518 57
-168 119 -280 235 -427 77 -97 201 -189 381 -283 123 -64 270 -144 385 -210
36 -21 94 -53 130 -72 64 -35 96 -52 350 -190 144 -78 496 -253 620 -308 118
-52 183 -64 335 -63 148 1 231 19 374 80 103 44 728 368 941 488 41 23 122 68
180 100 58 32 144 82 192 112 48 29 90 53 94 53 8 0 152 87 209 128 67 47 95
73 168 162 33 41 64 77 67 80 12 11 56 77 70 103 8 16 16 24 18 17 5 -15 -106
-179 -162 -239 -72 -78 -200 -181 -268 -216 -40 -21 -138 -77 -218 -125 -212
-126 -734 -406 -1160 -621 -234 -117 -441 -164 -625 -141 -139 18 -447 154
-815 360 -74 41 -225 123 -335 182 -110 59 -243 131 -295 160 -52 29 -166 90
-252 135 -86 46 -191 108 -232 140 -171 128 -336 366 -410 593 -46 136 -57
221 -63 475 l-6 237 -144 0 -145 0 -165 -167 -164 -167 3 -81 c5 -139 -2 -339
-12 -355 -9 -13 -13 -12 -28 6 -17 20 -18 40 -14 238 l5 216 116 117 c64 63
147 146 184 182 l69 66 151 6 c84 3 155 6 158 7 4 1 9 -116 12 -260z m5423
140 c113 -115 199 -213 226 -258 14 -22 14 -50 4 -224 -11 -192 -12 -199 -34
-209 -41 -18 -46 0 -34 115 6 57 14 148 17 203 4 86 2 104 -14 128 -10 16 -80
91 -156 168 l-138 139 -83 0 c-81 0 -144 13 -130 28 9 8 93 19 171 21 l60 1
111 -112z m-5594 -219 c37 -50 -18 -124 -63 -83 -25 22 -24 69 2 95 24 24 36
22 61 -12z m5412 -1 c21 -29 20 -57 -1 -80 -20 -22 -41 -23 -65 -1 -30 27 -23
69 17 91 28 16 32 15 49 -10z m-6188 -220 c89 -79 85 -211 -8 -268 -91 -55
-220 15 -235 129 -7 52 1 83 34 121 33 40 54 49 120 49 45 1 57 -3 89 -31z
m7024 6 c69 -58 82 -151 30 -222 -39 -55 -81 -76 -137 -69 -82 9 -138 84 -131
177 7 94 55 139 150 140 47 0 62 -5 88 -26z m-6262 -4 c41 -39 19 -100 -36
-100 -48 0 -88 60 -64 96 19 28 71 30 100 4z m5446 -1 c58 -46 8 -128 -59 -97
-42 19 -47 101 -7 111 32 9 39 7 66 -14z m-394 -350 c-7 -11 -14 -18 -17 -15
-3 3 0 12 7 21 18 21 23 19 10 -6z m-5488 -418 c-11 -7 -11 -9 2 -14 9 -4 16
-13 16 -22 0 -18 -12 -19 -27 -4 -20 20 -43 2 -43 -34 0 -38 11 -51 51 -60 28
-7 53 12 62 48 4 15 5 14 6 -7 2 -48 -76 -76 -130 -47 -44 23 -44 113 -1 139
21 12 83 13 64 1z m6173 -28 c-25 -60 -12 -93 36 -93 36 0 57 40 40 78 -16 33
-14 37 9 17 25 -22 27 -77 3 -100 -39 -40 -100 -38 -122 4 -15 27 -14 84 1 99
19 19 41 15 33 -5z m-5331 -125 c-3 -13 -14 -30 -23 -38 -33 -30 -91 -71 -91
-63 1 9 30 50 30 41 0 -4 19 13 43 38 23 24 43 44 45 44 2 0 0 -10 -4 -22z
m-124 -129 c14 -25 8 -35 -9 -15 -15 18 -67 3 -93 -28 l-17 -21 -1 22 c0 50
98 85 120 42z m491 -19 c24 -13 25 -56 2 -68 -25 -12 -67 0 -71 22 -4 18 24
56 40 56 5 0 18 -5 29 -10z m3823 -16 c8 -30 -8 -54 -35 -54 -28 0 -41 33 -23
58 21 30 50 28 58 -4z m423 -31 c-3 -10 -5 -2 -5 17 0 19 2 27 5 18 2 -10 2
-26 0 -35z m-4079 -15 c1 -24 4 -96 8 -161 8 -143 -1 -247 -22 -247 -11 0 -14
29 -14 164 0 172 8 286 20 286 4 0 8 -19 8 -42z m151 -290 c1 -133 -3 -208 -9
-208 -5 0 -10 10 -10 23 -1 12 -3 90 -6 172 -6 162 4 305 17 250 3 -16 7 -123
8 -237z m-301 138 c-3 -36 -6 -41 -30 -44 -22 -3 -30 2 -39 22 -14 31 -6 54
23 65 38 14 49 3 46 -43z m3766 28 c14 -36 -5 -97 -28 -88 -32 12 -28 104 4
104 10 0 21 -7 24 -16z m-3776 -184 c3 -53 -12 -84 -28 -60 -5 8 -10 37 -10
63 0 41 3 48 18 45 13 -2 18 -15 20 -48z m3743 -9 c2 -36 -1 -56 -9 -59 -13
-4 -18 99 -5 111 10 11 11 6 14 -52z m-3130 -58 c-9 -16 -10 -15 -11 8 0 15 3
42 8 60 l7 34 3 -42 c2 -24 -1 -51 -7 -60z m-142 12 c4 2 7 -15 6 -38 -5 -109
-4 -107 -25 -107 -18 0 -20 7 -20 64 0 35 3 79 7 97 l6 34 10 -28 c5 -15 12
-25 16 -22z m-299 -126 c0 -41 -9 -53 -34 -43 -16 6 -22 66 -10 99 12 29 44
-12 44 -56z m3247 34 c-3 -10 -5 -4 -5 12 0 17 2 24 5 18 2 -7 2 -21 0 -30z
m-3422 11 c25 -25 15 -58 -17 -61 -25 -2 -28 1 -28 31 0 48 16 59 45 30z
m3593 -56 c-2 -25 -8 -33 -23 -33 -17 0 -20 6 -17 35 4 55 9 64 28 46 9 -10
14 -29 12 -48z m185 28 c-3 -37 -13 -47 -41 -40 -16 5 -22 14 -22 34 0 30 12
40 45 37 16 -2 20 -9 18 -31z m-353 -13 c0 -5 -5 -15 -10 -23 -8 -12 -10 -11
-10 8 0 12 5 22 10 22 6 0 10 -3 10 -7z m-25 -53 c3 -5 1 -10 -4 -10 -6 0 -11
5 -11 10 0 6 2 10 4 10 3 0 8 -4 11 -10z m-4788 -446 c59 -20 161 -91 202
-141 17 -21 31 -41 31 -45 0 -3 -26 -22 -58 -42 -32 -19 -66 -44 -77 -56 -21
-23 -35 -26 -35 -7 0 20 -50 64 -92 81 -53 22 -150 21 -196 -3 -173 -89 -165
-379 13 -462 51 -24 129 -24 180 0 40 18 105 82 105 102 0 6 25 -12 55 -39 31
-28 71 -56 90 -63 19 -7 35 -15 34 -19 -3 -18 -151 -134 -207 -162 -63 -31
-73 -33 -172 -33 -102 0 -109 1 -182 38 -224 110 -312 403 -196 647 47 98 187
199 304 220 61 11 139 5 201 -16z m775 15 c132 -28 257 -128 319 -254 33 -68
34 -72 34 -196 l0 -126 -43 -85 c-53 -108 -108 -165 -198 -208 -102 -48 -173
-58 -265 -36 -97 24 -161 57 -224 117 -64 60 -100 124 -125 225 -24 93 -25
131 -5 209 55 215 216 349 437 364 9 0 41 -4 70 -10z m951 -12 c82 -27 167
-78 216 -133 18 -19 31 -37 29 -38 -1 -2 -19 -11 -38 -21 -19 -10 -52 -31 -72
-47 l-38 -30 -29 21 c-46 33 -108 51 -176 51 -54 0 -69 -4 -111 -32 -63 -43
-101 -112 -110 -198 -8 -79 5 -132 46 -188 56 -77 148 -104 275 -80 l70 13 3
64 3 64 -93 -5 -93 -5 3 83 3 84 180 2 c98 0 183 1 188 2 6 1 11 -101 14 -246
3 -220 2 -248 -12 -252 -9 -2 -46 -7 -82 -11 l-66 -6 -7 41 -6 41 -33 -24
c-91 -69 -244 -69 -377 -2 -169 86 -252 268 -221 489 26 184 149 321 334 371
75 20 116 18 200 -8z m2933 -44 c-3 -25 -6 -70 -6 -100 l0 -54 -232 2 -231 1
-4 -83 -4 -84 206 3 206 3 -3 -88 -3 -88 -203 0 -202 0 0 -82 0 -83 240 0 240
0 0 -95 0 -95 -102 -1 c-57 -1 -210 -2 -341 -3 l-239 -1 3 445 c1 245 3 447 5
450 1 3 154 4 339 2 l338 -3 -7 -46z m624 26 c30 -14 70 -39 88 -54 30 -25
112 -127 112 -138 0 -3 -12 -8 -27 -12 -28 -7 -89 -47 -109 -72 -9 -11 -16 -7
-38 22 -59 77 -191 107 -276 63 -173 -90 -170 -388 5 -469 102 -47 245 7 278
105 2 5 21 -3 42 -17 22 -14 60 -36 85 -50 24 -14 46 -29 47 -34 2 -5 -30 -43
-70 -84 -118 -122 -238 -165 -372 -134 -119 27 -193 76 -260 169 -104 147
-122 343 -45 496 58 114 125 175 237 215 94 34 222 31 303 -6z m1863 24 c3 -5
-29 -60 -72 -123 -136 -207 -206 -315 -209 -325 -2 -10 180 -305 238 -384 54
-74 57 -71 -78 -71 l-121 0 -15 30 c-32 64 -148 260 -155 260 -3 0 -43 -64
-88 -142 l-82 -143 -117 -3 -117 -3 19 28 c10 15 36 60 57 98 52 92 175 285
198 310 17 20 16 23 -79 165 -54 80 -119 180 -145 223 l-47 77 118 0 118 0 54
-87 c29 -49 67 -111 84 -140 31 -53 46 -65 46 -39 0 14 120 215 148 248 11 13
34 18 101 21 47 1 98 4 113 5 15 1 29 -1 31 -5z m-4810 -111 c92 -114 245
-322 281 -384 11 -21 24 -38 27 -38 3 0 2 24 -2 53 -4 28 -5 147 -2 262 l6
210 104 3 104 3 -6 -442 c-3 -243 -6 -443 -8 -444 -1 -2 -39 -5 -85 -7 l-83
-5 -15 30 c-9 16 -41 64 -72 107 -31 42 -111 152 -177 244 l-120 166 -5 -267
-5 -268 -30 -6 c-16 -4 -61 -7 -98 -8 l-69 -1 6 158 c4 86 3 289 -1 450 l-8
292 85 -1 85 0 88 -107z m815 -336 c3 -404 2 -444 -13 -450 -9 -3 -53 -3 -98
0 l-82 7 -1 368 c-1 203 -5 403 -9 444 l-7 75 104 0 103 0 3 -444z m772 349
l0 -95 -124 0 c-69 0 -127 -4 -131 -9 -3 -5 -8 -163 -12 -350 l-6 -341 -62 0
c-35 0 -77 -3 -94 -6 l-32 -7 3 357 3 356 -121 0 -122 0 -4 88 c-2 48 -3 90
-1 95 2 4 161 7 354 7 l349 0 0 -95z m1840 -85 l0 -180 83 0 c45 0 119 3 165
7 l82 6 0 173 0 174 100 0 100 0 3 -297 c1 -164 1 -365 1 -448 l-1 -150 -103
-3 -103 -3 5 183 6 183 -169 -3 -169 -3 0 -179 0 -180 -100 0 -100 0 0 450 0
450 100 0 100 0 0 -180z m-3940 -1095 c21 -47 50 -115 64 -152 13 -38 34 -90
45 -117 12 -27 20 -50 19 -51 -2 -1 -19 -5 -39 -8 -36 -5 -37 -4 -54 39 l-17
45 -96 -3 -95 -3 -12 -35 c-11 -33 -15 -35 -58 -38 -26 -2 -47 -1 -47 2 0 6
32 80 88 203 28 59 59 129 70 156 19 44 23 47 57 47 35 0 37 -1 75 -85z m547
55 c28 -16 54 -34 57 -39 3 -5 -12 -19 -35 -30 l-40 -21 -26 20 c-61 48 -166
11 -191 -68 -12 -37 -12 -46 5 -79 38 -79 138 -109 190 -57 27 27 51 27 87 -1
19 -14 18 -16 -23 -52 -72 -63 -115 -74 -194 -52 -76 21 -156 120 -157 193 0
54 24 111 65 151 71 72 174 85 262 35z m433 -80 c95 -209 130 -290 130 -300 0
-6 -20 -10 -44 -10 -43 0 -44 1 -58 43 l-13 42 -95 6 c-59 4 -97 2 -101 -4 -4
-5 -10 -26 -13 -46 -5 -35 -7 -36 -50 -39 -25 -1 -47 2 -51 7 -3 5 22 69 55
141 33 72 60 132 60 134 0 2 14 33 30 70 30 66 31 67 67 64 35 -3 37 -5 83
-108z m523 71 c63 -39 91 -84 95 -156 3 -48 0 -70 -16 -101 -44 -87 -98 -112
-240 -115 l-103 -2 -2 204 -2 204 115 -5 c98 -5 122 -9 153 -29z m1357 29 c0
-10 20 -42 91 -147 16 -23 16 -23 70 64 l55 88 47 3 c26 2 47 1 47 0 0 -2 -34
-56 -75 -119 -83 -126 -100 -171 -92 -241 l6 -48 -44 0 -45 0 0 78 0 77 -80
123 c-44 68 -80 125 -80 128 0 2 23 4 50 4 28 0 50 -5 50 -10z m-3784 -19 c59
-27 97 -81 96 -135 -1 -82 -50 -140 -127 -151 -49 -8 -74 2 -122 48 -43 41
-57 84 -44 135 14 50 41 85 83 105 43 21 64 21 114 -2z m2994 -21 l0 -40 -115
0 -115 0 0 -40 0 -40 100 0 100 0 0 -35 0 -35 -100 0 -100 0 0 -45 0 -45 115
0 115 0 0 -42 0 -43 -160 0 -160 0 0 203 0 202 160 0 160 0 0 -40z m239 14 c6
-15 31 -52 55 -83 24 -31 48 -66 55 -78 15 -30 25 -29 40 5 7 15 35 62 63 105
48 73 53 77 87 77 l36 0 -3 -200 -3 -200 -40 0 -40 0 3 115 c2 63 0 115 -4
115 -4 0 -19 -18 -33 -39 -29 -47 -84 -111 -95 -111 -4 0 -31 34 -59 75 -28
41 -55 76 -59 79 -4 2 -5 -32 -3 -75 2 -44 0 -100 -4 -125 -6 -45 -7 -45 -42
-42 l-36 3 -5 178 c-5 216 -3 227 42 227 26 0 35 -6 45 -26z m1611 1 c55 -29
85 -83 81 -151 -1 -25 -53 -94 -84 -111 -81 -45 -201 25 -213 123 -14 108 116
191 216 139z m-5302 -122 c156 -4 212 -9 212 -18 0 -7 -14 -15 -31 -19 -17 -3
-281 -6 -586 -6 -523 0 -554 1 -551 18 3 15 26 17 263 22 143 3 310 7 371 8
61 1 206 -1 322 -5z m4920 -3 c55 0 62 -2 62 -20 0 -19 -7 -20 -130 -20 l-130
0 0 26 0 27 68 -6 c37 -4 95 -7 130 -7z m-4018 -20 c0 -19 -7 -20 -130 -20
-123 0 -130 1 -130 20 0 19 7 20 130 20 123 0 130 -1 130 -20z m5750 6 c0 -18
-176 -24 -767 -26 -479 -1 -483 0 -483 20 0 20 4 20 625 20 518 0 625 -2 625
-14z"/>
<path d="M1316 6317 c-35 -35 -35 -89 -1 -122 50 -51 125 -16 125 57 0 44 -25
76 -67 84 -26 5 -37 1 -57 -19z"/>
<path d="M4884 8606 c-33 -8 -92 -26 -130 -41 -85 -34 -367 -176 -489 -246
-49 -29 -106 -59 -125 -67 -19 -8 -46 -22 -60 -32 -14 -10 -79 -46 -145 -81
-66 -34 -165 -90 -220 -124 -55 -35 -152 -93 -215 -130 -185 -110 -286 -183
-358 -261 -148 -160 -267 -424 -291 -643 -14 -128 -24 -1391 -12 -1477 15 -99
96 -357 136 -430 114 -205 240 -322 525 -486 58 -34 180 -105 271 -159 92 -55
169 -99 172 -99 4 0 77 -39 164 -87 274 -150 671 -340 764 -364 122 -32 222
-30 379 10 106 27 161 50 360 148 260 128 574 294 750 398 408 240 530 323
621 422 112 124 201 292 250 479 l32 119 4 570 c3 316 0 670 -5 795 -10 200
-14 238 -41 337 -53 198 -113 315 -229 451 -26 30 -46 58 -44 63 1 5 -2 8 -7
7 -5 -2 -29 13 -53 33 -23 19 -151 98 -283 174 -132 75 -287 166 -345 200
-217 129 -333 193 -626 341 -221 111 -320 156 -375 169 -99 23 -296 29 -375
11z m264 -280 c28 -18 54 -30 59 -25 10 10 203 -7 300 -27 121 -25 236 -69
440 -170 165 -81 216 -112 355 -216 90 -67 206 -165 259 -218 106 -105 250
-294 310 -404 178 -332 284 -793 262 -1151 -4 -77 -9 -121 -11 -97 -2 23 -8
42 -13 42 -13 0 -34 -20 -42 -40 -4 -12 -6 -11 -6 3 -1 10 -9 17 -21 17 -14 0
-21 -9 -26 -35 -13 -72 -18 -20 -16 158 5 335 -43 569 -182 891 -108 250 -325
524 -536 678 -337 245 -707 404 -1017 437 -61 7 -62 6 -74 -21 -6 -15 -31 -46
-55 -68 -36 -33 -50 -40 -85 -40 -52 0 -101 34 -130 91 l-20 41 -62 -7 c-285
-30 -641 -184 -977 -425 -144 -102 -330 -301 -433 -461 -152 -236 -240 -488
-291 -834 -36 -240 -2 -611 74 -810 12 -32 12 -38 2 -31 -5 3 -9 -1 -9 -8 0
-8 6 -12 14 -9 7 3 13 1 13 -5 0 -5 -7 -12 -15 -16 -8 -3 -15 -13 -15 -22 0
-10 5 -14 16 -10 8 3 12 2 9 -4 -3 -6 -15 -10 -27 -10 -17 0 -19 -4 -14 -25 4
-17 1 -31 -9 -41 -8 -9 -15 -24 -15 -35 0 -10 -4 -19 -9 -19 -11 0 -33 59 -25
71 3 5 0 9 -7 9 -6 0 -9 8 -6 20 3 11 2 20 -3 20 -24 0 -117 373 -132 533 -25
269 19 591 126 911 86 257 193 443 371 645 168 190 256 259 545 425 304 175
557 261 824 281 58 4 101 13 125 26 57 30 119 26 179 -15z m-497 -426 c29 -6
74 -20 98 -32 63 -30 159 -130 201 -208 l35 -65 -2 -1748 c0 -962 -3 -1751 -6
-1753 -2 -3 -33 -2 -69 2 l-64 6 -3 810 c-1 446 -6 820 -10 832 -4 11 -4 383
-1 826 3 443 2 839 -1 881 -8 90 -33 144 -95 205 -120 116 -290 108 -420 -21
-63 -63 -84 -119 -84 -229 0 -105 24 -156 119 -258 l73 -78 145 0 146 0 -7
-62 c-4 -35 -12 -67 -17 -73 -6 -6 -78 -11 -162 -13 l-152 -3 -142 150 c-112
119 -145 161 -161 203 -20 52 -20 53 -58 50 -101 -8 -222 -102 -290 -225 -25
-45 -29 -63 -29 -132 0 -69 4 -87 28 -131 34 -60 469 -506 535 -548 l43 -27
97 11 c74 9 106 17 133 36 37 26 97 32 142 15 28 -11 47 -56 47 -110 0 -61 -8
-65 -122 -72 -135 -9 -410 -9 -473 -1 -48 7 -50 8 -47 37 3 35 -54 113 -169
232 -121 124 -170 165 -185 152 -7 -6 -41 -17 -75 -25 -84 -20 -173 -84 -216
-155 -104 -174 -51 -404 116 -511 73 -46 107 -40 210 36 137 101 132 100 295
91 91 -4 149 -11 162 -20 30 -19 62 -73 80 -136 16 -54 57 -122 102 -171 21
-23 34 -28 71 -28 64 1 115 27 196 101 90 83 135 115 136 97 0 -7 2 -22 4 -32
4 -22 -20 -86 -32 -86 -4 0 -14 -15 -22 -32 -17 -40 -81 -101 -130 -125 -24
-11 -72 -19 -141 -22 l-105 -6 -3 -30 c-2 -16 1 -47 8 -67 l11 -38 78 2 78 3
55 -53 c30 -29 67 -74 81 -100 l26 -48 3 -531 3 -531 -35 5 c-19 2 -44 6 -56
8 l-21 5 5 494 c4 384 2 502 -8 525 -7 17 -43 60 -81 96 -58 54 -75 65 -104
65 -31 0 -39 -6 -74 -57 -56 -82 -106 -127 -181 -162 -85 -40 -167 -55 -255
-47 -168 16 -338 155 -376 309 -11 46 -8 219 6 292 6 29 3 31 -60 59 -111 49
-217 186 -244 314 -25 118 -4 296 46 400 39 82 132 175 215 217 39 19 77 35
85 35 10 0 7 12 -11 48 -93 185 -47 443 108 598 90 90 232 154 342 154 l42 0
11 62 c20 116 114 231 242 296 35 18 84 36 109 41 64 12 168 13 231 1z m1000
0 c86 -16 174 -65 249 -139 72 -72 106 -131 116 -203 l6 -45 67 -6 c123 -10
229 -62 347 -170 39 -35 66 -73 97 -135 l42 -85 0 -142 c0 -140 0 -142 -32
-205 -18 -34 -31 -66 -28 -70 3 -5 18 -11 35 -15 44 -10 139 -76 196 -137 97
-103 134 -204 134 -370 0 -182 -51 -304 -172 -412 l-61 -54 -13 -135 c-13
-133 -45 -254 -65 -242 -5 4 -6 -1 -3 -9 5 -13 -2 -16 -40 -16 -39 0 -44 -2
-39 -17 3 -10 3 -15 -2 -11 -4 4 -24 -2 -43 -13 -20 -10 -57 -20 -82 -20 -25
-1 -37 -3 -27 -6 12 -3 17 -15 17 -43 0 -26 6 -42 16 -48 50 -28 -165 -51
-478 -52 -206 0 -220 -1 -270 -24 -92 -41 -85 -7 -93 -476 -4 -255 -10 -419
-16 -426 -6 -7 -33 -17 -60 -23 -74 -16 -79 -15 -73 17 3 15 6 214 7 442 2
475 -3 444 96 551 93 102 89 101 451 97 l305 -3 66 31 c39 19 75 44 88 62 39
55 73 142 78 201 l5 58 -101 6 c-55 4 -305 4 -555 0 l-454 -6 -4 74 c-3 41 -3
77 -1 82 2 4 256 7 565 7 630 0 607 -3 646 73 12 23 47 73 77 110 66 83 78
124 73 242 -5 108 -34 181 -98 245 -52 52 -109 78 -190 87 -34 3 -68 13 -77
21 -14 14 -32 -1 -174 -149 -88 -90 -169 -181 -181 -202 -16 -27 -32 -40 -57
-46 -62 -16 -149 -23 -196 -15 -39 5 -46 9 -43 28 2 12 30 41 68 69 36 26 139
121 230 210 91 89 209 203 262 252 124 115 143 153 143 280 -1 114 -25 173
-99 243 -61 58 -109 85 -193 106 -76 20 -73 20 -74 -6 0 -13 -8 -42 -17 -65
-20 -50 -225 -299 -262 -318 -14 -7 -73 -14 -135 -16 l-110 -4 -3 162 -2 162
-49 35 c-88 65 -109 165 -54 255 86 141 280 104 324 -61 21 -76 -17 -152 -102
-209 -25 -16 -36 -28 -27 -31 9 -3 14 -30 16 -91 4 -87 4 -87 31 -87 33 0 67
34 144 143 71 100 81 131 74 226 -7 103 -32 165 -89 222 -71 72 -126 94 -228
94 -74 0 -91 -3 -131 -27 -56 -33 -123 -104 -145 -155 -10 -23 -18 -74 -20
-133 -2 -52 -5 -819 -8 -1703 -2 -903 -7 -1612 -12 -1617 -5 -4 -36 -10 -69
-12 l-60 -3 0 1765 0 1765 28 56 c15 31 45 77 67 101 44 50 156 114 222 127
61 12 166 13 229 1z m-1013 -327 c55 -45 74 -88 70 -159 -9 -147 -142 -225
-256 -150 -164 110 -89 361 102 342 34 -4 61 -14 84 -33z m1579 -481 c65 -46
90 -151 53 -227 -28 -57 -123 -125 -175 -125 -39 0 -108 47 -129 88 -60 117
-32 221 76 276 46 23 134 17 175 -12z m-2120 -11 c43 -31 83 -100 83 -143 0
-67 -77 -170 -140 -189 -74 -22 -152 27 -204 128 -31 62 -9 142 58 201 33 29
43 32 100 32 54 0 69 -4 103 -29z m1609 -286 c18 -7 54 -33 79 -56 l46 -43 34
18 c19 10 44 29 56 42 12 13 25 24 29 24 10 0 10 -53 -1 -114 -7 -42 -7 -61 0
-66 15 -9 -190 -224 -243 -255 -31 -18 -51 -23 -73 -19 -29 6 -31 4 -37 -31
-4 -21 -4 -66 -1 -101 l7 -64 -43 0 c-71 0 -89 8 -89 40 0 15 -3 43 -7 61 l-7
34 -7 -35 -6 -35 -14 33 c-9 18 -19 29 -23 25 -4 -4 -4 1 0 11 4 11 3 17 -2
14 -10 -6 -11 17 -14 239 -2 136 -1 144 23 185 31 53 72 92 112 106 36 14 136
6 181 -13z m-1181 -23 c33 -17 43 -27 82 -87 14 -22 41 -57 59 -77 29 -33 32
-40 22 -65 -8 -21 -22 -32 -57 -43 -35 -11 -52 -25 -73 -57 -24 -35 -36 -43
-80 -53 -87 -18 -146 0 -226 70 -37 32 -89 81 -117 109 -41 42 -48 54 -39 69
18 28 70 59 112 65 22 4 58 22 86 43 69 55 156 65 231 26z m1465 -136 c0 -2
-8 -10 -17 -17 -16 -13 -17 -12 -4 4 13 16 21 21 21 13z m-2222 -260 c56 -29
98 -95 108 -169 6 -41 4 -46 -45 -99 -59 -65 -117 -93 -171 -83 -89 17 -153
96 -152 190 0 63 18 101 67 144 32 28 42 31 101 31 36 0 77 -6 92 -14z m2767
-38 c47 -49 71 -112 61 -161 -26 -131 -155 -191 -268 -124 -54 31 -98 106 -98
163 1 72 46 141 110 167 8 4 46 5 84 4 67 -3 69 -4 111 -49z m-1088 -180 c-3
-7 -5 -2 -5 12 0 14 2 19 5 13 2 -7 2 -19 0 -25z m1590 -150 c-3 -8 -6 -5 -6
6 -1 11 2 17 5 13 3 -3 4 -12 1 -19z m-805 -4 c65 -8 100 -41 96 -92 l-3 -37
-240 -9 c-132 -4 -349 -5 -481 -1 l-242 7 -6 30 c-3 17 -6 51 -6 75 l0 45 418
-6 c229 -4 438 -9 464 -12z m-1524 -32 c5 -45 -20 -79 -66 -91 -42 -12 -326
-20 -336 -10 -8 7 -12 96 -6 103 8 7 299 34 355 32 49 -1 50 -2 53 -34z m2279
-24 c-3 -8 -6 -5 -6 6 -1 11 2 17 5 13 3 -3 4 -12 1 -19z m126 -39 c-6 -6 -7
3 -4 23 4 28 6 29 9 9 2 -13 0 -27 -5 -32z m-747 -421 c-9 -12 -16 -35 -16
-50 0 -16 -9 -37 -19 -47 -23 -23 -108 -28 -633 -36 l-347 -5 2 80 2 80 513 0
513 0 -15 -22z m-3169 -165 c0 -9 -4 -10 -14 -2 -7 6 -13 18 -13 26 0 11 3 11
13 1 8 -7 14 -18 14 -25z m2813 -330 c-8 -3 -24 -10 -35 -15 -20 -9 -20 -9 -1
6 11 9 27 16 35 15 14 0 14 -1 1 -6z m-1886 -44 c22 -18 26 -27 21 -53 -4 -26
-4 -28 5 -8 14 33 21 27 8 -8 -9 -26 -12 -29 -26 -18 -41 33 -82 80 -82 93 0
22 43 18 74 -6z m1821 11 c-3 -5 -12 -10 -18 -10 -7 0 -6 4 3 10 19 12 23 12
15 0z m383 -32 c2 -20 -2 -28 -19 -33 -30 -10 -53 19 -38 47 15 29 53 20 57
-14z m-478 -22 c0 -2 -8 -10 -17 -17 -16 -13 -17 -12 -4 4 13 16 21 21 21 13z
m-1604 -71 c9 -14 36 -37 59 -50 22 -14 52 -36 66 -51 23 -25 24 -26 5 -40
-11 -8 -36 -14 -55 -14 -33 0 -39 5 -64 50 -16 28 -25 55 -22 60 3 6 1 10 -6
10 -7 0 -9 10 -6 26 3 18 1 24 -9 20 -8 -3 -14 -1 -14 4 0 20 30 9 46 -15z
m-56 -5 c8 -5 12 -11 10 -14 -3 -2 -14 2 -24 10 -22 15 -10 19 14 4z m1590
-385 c-14 -7 -27 -11 -30 -9 -6 7 22 24 40 23 9 0 5 -6 -10 -14z m5 -145 c-27
-12 -35 -12 -35 0 0 6 12 10 28 9 24 0 25 -1 7 -9z"/>
<path d="M5005 8245 c-41 -41 -30 -105 22 -122 40 -13 61 -6 78 27 21 40 19
76 -5 100 -27 27 -66 25 -95 -5z"/>
<path d="M3126 5513 c7 -21 14 -51 15 -68 l1 -30 8 30 c4 17 8 47 9 68 1 33
-2 37 -23 37 -23 0 -23 -1 -10 -37z"/>
<path d="M3919 5821 c-77 -16 -196 -106 -231 -175 -16 -29 -23 -65 -26 -126
-4 -81 -2 -88 30 -150 58 -112 158 -168 278 -157 155 14 263 151 247 315 -7
72 -40 195 -61 227 -34 52 -150 84 -237 66z m86 -174 c119 -67 108 -245 -19
-306 -59 -29 -106 -17 -161 39 -37 38 -40 45 -43 108 -4 86 16 128 78 160 56
28 94 28 145 -1z"/>
<path d="M3886 5561 c-10 -11 -20 -38 -23 -62 -5 -36 -3 -44 18 -60 56 -43
129 -6 129 66 0 63 -84 101 -124 56z"/>
<path d="M5535 7488 c-50 -27 -58 -66 -20 -103 30 -31 80 -34 95 -6 19 36 12
78 -16 100 -31 24 -32 24 -59 9z"/>
<path d="M5120 4305 c0 -55 0 -55 26 -49 16 4 29 2 33 -5 4 -7 8 15 8 49 l0
60 -34 0 -33 0 0 -55z"/>
<path d="M4492 7477 c-26 -27 -28 -57 -7 -96 24 -48 63 -54 100 -16 35 34 34
86 -1 114 -35 27 -65 27 -92 -2z"/>
<path d="M6061 6974 c-24 -31 -25 -35 -10 -67 34 -74 129 -44 129 40 0 39 -17
53 -61 53 -29 0 -43 -6 -58 -26z"/>
<path d="M3951 6974 c-29 -37 -26 -70 8 -105 36 -35 54 -36 86 -4 34 33 35 97
3 119 -34 24 -73 20 -97 -10z"/>
<path d="M5586 6646 c-42 -39 -47 -79 -15 -120 16 -20 29 -26 60 -26 34 0 42
5 69 42 37 50 37 68 4 107 -35 42 -72 41 -118 -3z"/>
<path d="M4379 6661 c-22 -23 -29 -39 -29 -68 0 -53 31 -83 87 -83 50 0 83 34
83 86 0 46 -8 63 -41 79 -42 22 -67 18 -100 -14z"/>
<path d="M3641 6264 c-35 -45 -26 -95 20 -120 26 -13 32 -13 58 0 16 9 31 23
35 31 32 84 -60 156 -113 89z"/>
<path d="M6370 6261 c-39 -39 -39 -72 1 -105 38 -32 59 -33 87 -3 40 43 21
115 -36 132 -17 5 -30 -1 -52 -24z"/>
<path d="M4090 4922 c0 -5 7 -9 15 -9 8 0 12 4 9 9 -3 4 -9 8 -15 8 -5 0 -9
-4 -9 -8z"/>
<path d="M3078 8346 c-6 -14 -8 -32 -5 -40 8 -20 56 -21 82 -2 18 13 18 15 2
40 -23 34 -63 35 -79 2z"/>
<path d="M6914 8355 c-22 -34 -15 -59 19 -63 53 -6 73 32 37 68 -26 26 -36 25
-56 -5z"/>
<path d="M2627 8003 c-4 -3 -7 -11 -7 -17 0 -6 5 -5 12 2 6 6 9 14 7 17 -3 3
-9 2 -12 -2z"/>
<path d="M7497 8013 c-4 -3 -7 -11 -7 -17 0 -6 5 -5 12 2 6 6 9 14 7 17 -3 3
-9 2 -12 -2z"/>
<path d="M2346 7731 c-21 -23 -18 -49 7 -65 39 -25 79 44 41 71 -23 17 -28 17
-48 -6z"/>
<path d="M7701 7731 c-28 -52 -1 -86 45 -56 35 23 31 69 -8 73 -18 2 -30 -3
-37 -17z"/>
<path d="M8075 7330 c-4 -6 3 -10 14 -10 25 0 27 6 6 13 -8 4 -17 2 -20 -3z"/>
<path d="M1500 7070 c-29 -29 -24 -77 13 -104 26 -19 30 -19 55 -5 69 38 62
121 -10 127 -27 2 -43 -3 -58 -18z"/>
<path d="M2340 7145 c0 -9 5 -15 11 -13 6 2 11 8 11 13 0 5 -5 11 -11 13 -6 2
-11 -4 -11 -13z"/>
<path d="M7764 7148 c-4 -7 -3 -8 4 -4 7 4 12 2 12 -4 0 -6 5 -8 10 -5 11 7 4
25 -10 25 -5 0 -12 -5 -16 -12z"/>
<path d="M8497 7088 c-9 -7 -20 -27 -23 -45 -5 -27 -1 -37 24 -63 36 -35 50
-37 86 -9 30 24 35 72 10 107 -17 25 -69 30 -97 10z"/>
<path d="M8712 6333 c-17 -7 -42 -57 -42 -86 0 -33 46 -77 81 -77 64 0 95 108
43 149 -26 20 -55 25 -82 14z"/>
<path d="M2340 5500 c0 -5 10 -14 21 -21 17 -8 23 -8 30 2 4 7 5 17 3 21 -7
11 -54 10 -54 -2z"/>
<path d="M7778 5493 c-19 -5 -25 -23 -9 -23 17 0 41 12 41 21 0 9 -4 10 -32 2z"/>
<path d="M1493 5255 c-33 -23 -31 -77 3 -104 15 -12 37 -21 50 -21 29 0 64 36
64 66 0 52 -74 89 -117 59z"/>
<path d="M8501 5244 c-27 -34 -27 -65 2 -91 50 -46 97 -37 117 22 18 54 -3 89
-56 93 -35 3 -45 -1 -63 -24z"/>
<path d="M2320 5295 c0 -31 26 -43 47 -22 13 13 14 19 3 31 -21 26 -50 20 -50
-9z"/>
<path d="M7754 5305 c-8 -20 13 -45 37 -45 23 0 32 15 24 40 -8 24 -53 28 -61
5z"/>
<path d="M2410 3021 c-137 -42 -207 -184 -162 -329 25 -77 59 -123 109 -147
96 -46 185 -37 257 26 139 123 102 385 -63 444 -46 16 -100 18 -141 6z"/>
<path d="M3498 1851 c-16 -37 -28 -70 -28 -74 0 -4 25 -7 55 -7 42 0 55 4 55
15 0 18 -39 123 -48 129 -4 2 -19 -26 -34 -63z"/>
<path d="M4482 1900 c-38 -93 -44 -112 -38 -117 10 -10 116 -16 116 -7 -1 5
-16 41 -34 79 -32 67 -34 69 -44 45z"/>
<path d="M4918 1819 l3 -122 65 6 c74 6 106 27 125 84 16 49 4 97 -32 127 -26
22 -40 26 -97 26 l-67 0 3 -121z"/>
<path d="M2593 1919 c-12 -4 -29 -19 -39 -33 -15 -24 -15 -28 0 -51 25 -38 58
-50 92 -34 22 11 30 22 32 48 5 52 -38 88 -85 70z"/>
<path d="M7410 1917 c-37 -19 -39 -68 -4 -96 15 -11 35 -21 45 -21 27 0 59 36
59 65 0 29 -32 65 -57 65 -10 0 -29 -6 -43 -13z"/>
</g>
</svg>
